<svg width="48" height="44" viewBox="0 0 48 44" fill="none" xmlns="http://www.w3.org/2000/svg">
<path d="M9.64995 32C6.94995 32 4.65828 31.05 2.77495 29.15C0.891618 27.25 -0.0500488 24.95 -0.0500488 22.25C-0.0500488 19.55 0.899951 17.2583 2.79995 15.375C4.69995 13.4917 6.99995 12.55 9.69995 12.55C12.0666 12.55 14.1416 13.3083 15.925 14.825C17.7083 16.3417 18.7833 18.2667 19.15 20.6H21.7L17.6 9H13.95V6H23.35V9H20.75L22.0499 12.55H33.15L29.6 3H24.35V0H29.2999C30.0999 0 30.775 0.183333 31.325 0.55C31.875 0.916667 32.2833 1.46667 32.5499 2.2L36.3499 12.55H38.25C40.95 12.55 43.2416 13.4833 45.125 15.35C47.0083 17.2167 47.95 19.4833 47.95 22.15C47.95 24.85 47.0083 27.1667 45.125 29.1C43.2416 31.0333 40.95 32 38.25 32C35.85 32 33.75 31.2 31.95 29.6C30.15 28 29.05 26 28.65 23.6H19.15C18.7833 26 17.7083 28 15.925 29.6C14.1416 31.2 12.05 32 9.64995 32ZM9.64995 29C11.25 29 12.6416 28.4833 13.825 27.45C15.0083 26.4167 15.8 25.1333 16.2 23.6H10.25V20.6H16.2C15.8 19.1 15 17.8833 13.8 16.95C12.6 16.0167 11.2333 15.55 9.69995 15.55C7.83328 15.55 6.24162 16.2 4.92495 17.5C3.60828 18.8 2.94995 20.3833 2.94995 22.25C2.94995 24.1167 3.59995 25.7083 4.89995 27.025C6.19995 28.3417 7.78328 29 9.64995 29ZM24.9 20.6H28.7C28.8333 19.8333 29.0916 18.9833 29.475 18.05C29.8583 17.1167 30.3833 16.2833 31.0499 15.55H23.1L24.9 20.6ZM38.25 29C40.1166 29 41.7 28.3417 43 27.025C44.3 25.7083 44.95 24.1167 44.95 22.25C44.95 20.3833 44.3 18.8 43 17.5C41.7 16.2 40.1166 15.55 38.25 15.55H37.45L39.4 21.2L36.5999 22.15L34.45 16.55C33.4833 17.1167 32.7583 17.9167 32.275 18.95C31.7916 19.9833 31.5499 21.0833 31.5499 22.25C31.5499 24.1167 32.2 25.7083 33.5 27.025C34.8 28.3417 36.3833 29 38.25 29ZM25.7999 44L14.65 38.35H22V34.55L33.3499 40.25H25.7999V44Z" fill="url(#paint0_linear_24_4)"/>
<defs>
<linearGradient id="paint0_linear_24_4" x1="23.95" y1="0" x2="23.95" y2="44" gradientUnits="userSpaceOnUse">
<stop stop-color="#6751A8"/>
<stop offset="1" stop-color="#816CBE"/>
</linearGradient>
</defs>
</svg>
